<mxfile host="65bd71144e">
    <diagram id="Q62y2dem8TCjtpXGKC1d" name="Page-1">
        <mxGraphModel dx="3603" dy="2588" grid="1" gridSize="10" guides="1" tooltips="1" connect="1" arrows="1" fold="1" page="1" pageScale="1" pageWidth="827" pageHeight="1169" background="#ffffff" math="0" shadow="0">
            <root>
                <mxCell id="0"/>
                <mxCell id="1" parent="0"/>
                <mxCell id="134" value="" style="group" vertex="1" connectable="0" parent="1">
                    <mxGeometry x="-496" y="100" width="970" height="2017" as="geometry"/>
                </mxCell>
                <mxCell id="7" value="" style="rounded=0;whiteSpace=wrap;html=1;strokeColor=#000000;fontColor=#000000;fillColor=none;movable=1;resizable=1;rotatable=1;deletable=1;editable=1;connectable=1;" parent="134" vertex="1">
                    <mxGeometry x="126" y="49" width="750" height="1968" as="geometry"/>
                </mxCell>
                <mxCell id="2" value="&lt;font color=&quot;#000000&quot;&gt;Manage users&lt;/font&gt;" style="ellipse;whiteSpace=wrap;html=1;fillColor=#fad9d5;strokeColor=#ae4132;" parent="134" vertex="1">
                    <mxGeometry x="225" y="88" width="120" height="50" as="geometry"/>
                </mxCell>
                <mxCell id="92" style="edgeStyle=none;html=1;exitX=1;exitY=0.3333333333333333;exitDx=0;exitDy=0;exitPerimeter=0;entryX=0;entryY=0.5;entryDx=0;entryDy=0;endArrow=none;endFill=0;strokeColor=#000000;" parent="134" source="4" target="2" edge="1">
                    <mxGeometry relative="1" as="geometry"/>
                </mxCell>
                <mxCell id="4" value="&lt;font color=&quot;#000000&quot;&gt;Admin&lt;/font&gt;" style="shape=umlActor;html=1;verticalLabelPosition=bottom;verticalAlign=top;align=center;strokeColor=#b46504;fillColor=#fad7ac;" parent="134" vertex="1">
                    <mxGeometry y="364" width="30" height="60" as="geometry"/>
                </mxCell>
                <mxCell id="8" value="&lt;font color=&quot;#000000&quot;&gt;Project Manager&lt;/font&gt;" style="shape=umlActor;html=1;verticalLabelPosition=bottom;verticalAlign=top;align=center;strokeColor=#10739e;fillColor=#b1ddf0;" parent="134" vertex="1">
                    <mxGeometry y="874" width="30" height="60" as="geometry"/>
                </mxCell>
                <mxCell id="9" value="&lt;font color=&quot;#000000&quot;&gt;Team Member&lt;/font&gt;" style="shape=umlActor;html=1;verticalLabelPosition=bottom;verticalAlign=top;align=center;strokeColor=#56517e;fillColor=#d0cee2;" parent="134" vertex="1">
                    <mxGeometry y="1425" width="30" height="60" as="geometry"/>
                </mxCell>
                <mxCell id="10" value="&lt;font color=&quot;#000000&quot;&gt;Notification System&lt;/font&gt;" style="shape=umlActor;html=1;verticalLabelPosition=bottom;verticalAlign=top;align=center;strokeColor=#23445d;fillColor=#bac8d3;" parent="134" vertex="1">
                    <mxGeometry x="940" y="1198" width="30" height="60" as="geometry"/>
                </mxCell>
                <mxCell id="12" value="&lt;font color=&quot;#000000&quot;&gt;Define project details&lt;/font&gt;" style="ellipse;whiteSpace=wrap;html=1;fillColor=#b1ddf0;strokeColor=#10739e;" parent="134" vertex="1">
                    <mxGeometry x="220" y="683" width="120" height="50" as="geometry"/>
                </mxCell>
                <mxCell id="102" style="edgeStyle=none;html=1;exitX=1;exitY=0.3333333333333333;exitDx=0;exitDy=0;exitPerimeter=0;entryX=0;entryY=0.5;entryDx=0;entryDy=0;strokeColor=#000000;endArrow=none;endFill=0;" parent="134" source="8" target="12" edge="1">
                    <mxGeometry relative="1" as="geometry"/>
                </mxCell>
                <mxCell id="13" value="&lt;font color=&quot;#000000&quot;&gt;View assigned tasks&lt;/font&gt;" style="ellipse;whiteSpace=wrap;html=1;fillColor=#d0cee2;strokeColor=#56517e;" parent="134" vertex="1">
                    <mxGeometry x="223" y="1589" width="120" height="50" as="geometry"/>
                </mxCell>
                <mxCell id="14" value="&lt;font color=&quot;#000000&quot;&gt;Notify team&lt;br&gt;&amp;nbsp;members&lt;/font&gt;" style="ellipse;whiteSpace=wrap;html=1;fillColor=#bac8d3;strokeColor=#23445d;" parent="134" vertex="1">
                    <mxGeometry x="495" y="914" width="120" height="50" as="geometry"/>
                </mxCell>
                <mxCell id="126" style="edgeStyle=none;html=1;exitX=0;exitY=0.3333333333333333;exitDx=0;exitDy=0;exitPerimeter=0;strokeColor=#000000;entryX=1;entryY=0.5;entryDx=0;entryDy=0;" parent="134" source="10" target="14" edge="1">
                    <mxGeometry relative="1" as="geometry">
                        <mxPoint x="760" y="844" as="targetPoint"/>
                    </mxGeometry>
                </mxCell>
                <mxCell id="15" value="&lt;font color=&quot;#000000&quot;&gt;Generate project reports&lt;/font&gt;" style="ellipse;whiteSpace=wrap;html=1;fillColor=#fff2cc;strokeColor=#d6b656;" parent="134" vertex="1">
                    <mxGeometry x="515" y="1074" width="120" height="50" as="geometry"/>
                </mxCell>
                <mxCell id="16" value="&lt;font style=&quot;font-size: 24px;&quot;&gt;&lt;b&gt;Digital Workspace and Collaboration&lt;/b&gt;&lt;/font&gt;" style="text;html=1;strokeColor=none;fillColor=none;align=center;verticalAlign=middle;whiteSpace=wrap;rounded=0;fontColor=#000000;" parent="134" vertex="1">
                    <mxGeometry x="260" width="450" height="30" as="geometry"/>
                </mxCell>
                <mxCell id="17" value="&lt;font color=&quot;#000000&quot;&gt;Create workplace&lt;/font&gt;" style="ellipse;whiteSpace=wrap;html=1;fillColor=#fad9d5;strokeColor=#ae4132;" parent="134" vertex="1">
                    <mxGeometry x="225" y="143" width="120" height="50" as="geometry"/>
                </mxCell>
                <mxCell id="21" value="&lt;font color=&quot;#000000&quot;&gt;Divide project into tasks&lt;/font&gt;" style="ellipse;whiteSpace=wrap;html=1;fillColor=#b1ddf0;strokeColor=#10739e;" parent="134" vertex="1">
                    <mxGeometry x="220" y="847" width="120" height="50" as="geometry"/>
                </mxCell>
                <mxCell id="23" value="&lt;font color=&quot;#000000&quot;&gt;Set project deadlines&lt;/font&gt;" style="ellipse;whiteSpace=wrap;html=1;fillColor=#b1ddf0;strokeColor=#10739e;" parent="134" vertex="1">
                    <mxGeometry x="220" y="738" width="120" height="46" as="geometry"/>
                </mxCell>
                <mxCell id="133" value="" style="edgeStyle=none;html=1;" edge="1" parent="134" source="24" target="23">
                    <mxGeometry relative="1" as="geometry"/>
                </mxCell>
                <mxCell id="24" value="&lt;font color=&quot;#000000&quot;&gt;Assign initial team mamabers&lt;/font&gt;" style="ellipse;whiteSpace=wrap;html=1;fillColor=#b1ddf0;strokeColor=#10739e;" parent="134" vertex="1">
                    <mxGeometry x="220" y="791" width="120" height="50" as="geometry"/>
                </mxCell>
                <mxCell id="28" value="&lt;font color=&quot;#000000&quot;&gt;Update task status&lt;/font&gt;" style="ellipse;whiteSpace=wrap;html=1;fillColor=#d0cee2;strokeColor=#56517e;" parent="134" vertex="1">
                    <mxGeometry x="440" y="1589" width="120" height="50" as="geometry"/>
                </mxCell>
                <mxCell id="30" value="&lt;font style=&quot;font-size: 12px;&quot;&gt;&amp;lt;&amp;lt;include&amp;gt;&amp;gt;&lt;/font&gt;" style="html=1;verticalAlign=bottom;labelBackgroundColor=none;endArrow=open;endFill=0;dashed=1;fontSize=24;fontColor=#000000;exitX=1;exitY=0.5;exitDx=0;exitDy=0;entryX=0;entryY=0.5;entryDx=0;entryDy=0;strokeColor=#000000;" parent="134" source="52" target="14" edge="1">
                    <mxGeometry x="0.0021" width="160" relative="1" as="geometry">
                        <mxPoint x="365" y="728.33" as="sourcePoint"/>
                        <mxPoint x="555" y="728.33" as="targetPoint"/>
                        <mxPoint as="offset"/>
                    </mxGeometry>
                </mxCell>
                <mxCell id="31" value="&lt;font color=&quot;#000000&quot;&gt;Notify project manager&lt;/font&gt;" style="ellipse;whiteSpace=wrap;html=1;fillColor=#bac8d3;strokeColor=#23445d;" parent="134" vertex="1">
                    <mxGeometry x="615" y="1473" width="120" height="50" as="geometry"/>
                </mxCell>
                <mxCell id="32" value="&lt;font style=&quot;font-size: 12px;&quot;&gt;&amp;lt;&amp;lt;include&amp;gt;&amp;gt;&lt;/font&gt;" style="html=1;verticalAlign=bottom;labelBackgroundColor=none;endArrow=open;endFill=0;dashed=1;fontSize=24;fontColor=#000000;exitX=1;exitY=0.5;exitDx=0;exitDy=0;entryX=0;entryY=0.5;entryDx=0;entryDy=0;strokeColor=#000000;" parent="134" source="28" target="31" edge="1">
                    <mxGeometry x="0.0038" width="160" relative="1" as="geometry">
                        <mxPoint x="335" y="1717" as="sourcePoint"/>
                        <mxPoint x="505" y="1711" as="targetPoint"/>
                        <mxPoint as="offset"/>
                    </mxGeometry>
                </mxCell>
                <mxCell id="33" value="&lt;font style=&quot;font-size: 12px;&quot;&gt;&amp;lt;&amp;lt;exclude&amp;gt;&amp;gt;&lt;/font&gt;" style="html=1;verticalAlign=bottom;labelBackgroundColor=none;endArrow=open;endFill=0;dashed=1;strokeColor=#000000;fontSize=24;fontColor=#000000;entryX=1;entryY=0.5;entryDx=0;entryDy=0;exitX=0;exitY=0.5;exitDx=0;exitDy=0;" parent="134" source="15" target="63" edge="1">
                    <mxGeometry width="160" relative="1" as="geometry">
                        <mxPoint x="455" y="889" as="sourcePoint"/>
                        <mxPoint x="615" y="889" as="targetPoint"/>
                    </mxGeometry>
                </mxCell>
                <mxCell id="34" value="&lt;font color=&quot;#000000&quot;&gt;Participate in discussions&lt;/font&gt;" style="ellipse;whiteSpace=wrap;html=1;fillColor=#fff2cc;strokeColor=#d6b656;" parent="134" vertex="1">
                    <mxGeometry x="630" y="1548" width="120" height="50" as="geometry"/>
                </mxCell>
                <mxCell id="35" value="&lt;font style=&quot;font-size: 12px;&quot;&gt;&amp;lt;&amp;lt;exclude&amp;gt;&amp;gt;&lt;/font&gt;" style="html=1;verticalAlign=bottom;labelBackgroundColor=none;endArrow=open;endFill=0;dashed=1;strokeColor=#000000;fontSize=24;fontColor=#000000;entryX=1;entryY=0.5;entryDx=0;entryDy=0;exitX=0;exitY=0.5;exitDx=0;exitDy=0;" parent="134" source="34" target="28" edge="1">
                    <mxGeometry width="160" relative="1" as="geometry">
                        <mxPoint x="475" y="1404" as="sourcePoint"/>
                        <mxPoint x="335" y="1404" as="targetPoint"/>
                    </mxGeometry>
                </mxCell>
                <mxCell id="36" value="&lt;font color=&quot;#000000&quot;&gt;Edit user details&lt;/font&gt;" style="ellipse;whiteSpace=wrap;html=1;fillColor=#fad9d5;strokeColor=#ae4132;" parent="134" vertex="1">
                    <mxGeometry x="500" y="148" width="120" height="50" as="geometry"/>
                </mxCell>
                <mxCell id="37" value="&lt;font color=&quot;#000000&quot;&gt;Delete user&lt;/font&gt;" style="ellipse;whiteSpace=wrap;html=1;fillColor=#fad9d5;strokeColor=#ae4132;" parent="134" vertex="1">
                    <mxGeometry x="500" y="208" width="120" height="50" as="geometry"/>
                </mxCell>
                <mxCell id="38" value="&lt;font color=&quot;#000000&quot;&gt;Assign user roles&lt;/font&gt;" style="ellipse;whiteSpace=wrap;html=1;fillColor=#fad9d5;strokeColor=#ae4132;" parent="134" vertex="1">
                    <mxGeometry x="500" y="268" width="120" height="50" as="geometry"/>
                </mxCell>
                <mxCell id="39" value="&lt;font color=&quot;#000000&quot;&gt;Edit workplace Details&lt;/font&gt;" style="ellipse;whiteSpace=wrap;html=1;fillColor=#fad9d5;strokeColor=#ae4132;" parent="134" vertex="1">
                    <mxGeometry x="225" y="198" width="120" height="50" as="geometry"/>
                </mxCell>
                <mxCell id="40" value="&lt;font color=&quot;#000000&quot;&gt;Delete workplace&lt;/font&gt;" style="ellipse;whiteSpace=wrap;html=1;fillColor=#fad9d5;strokeColor=#ae4132;" parent="134" vertex="1">
                    <mxGeometry x="225" y="253" width="120" height="50" as="geometry"/>
                </mxCell>
                <mxCell id="41" value="&lt;font color=&quot;#000000&quot;&gt;Set project priorities&lt;/font&gt;" style="ellipse;whiteSpace=wrap;html=1;fillColor=#b1ddf0;strokeColor=#10739e;" parent="134" vertex="1">
                    <mxGeometry x="365" y="709" width="120" height="50" as="geometry"/>
                </mxCell>
                <mxCell id="42" value="&lt;font color=&quot;#000000&quot;&gt;Attach task deliverables&lt;/font&gt;" style="ellipse;whiteSpace=wrap;html=1;fillColor=#d0cee2;strokeColor=#56517e;" parent="134" vertex="1">
                    <mxGeometry x="225" y="1699" width="120" height="50" as="geometry"/>
                </mxCell>
                <mxCell id="43" value="&lt;font color=&quot;#000000&quot;&gt;Request task clarification&lt;/font&gt;" style="ellipse;whiteSpace=wrap;html=1;fillColor=#d0cee2;strokeColor=#56517e;" parent="134" vertex="1">
                    <mxGeometry x="225" y="1644" width="120" height="50" as="geometry"/>
                </mxCell>
                <mxCell id="46" value="&lt;font color=&quot;#000000&quot;&gt;View all projects&lt;/font&gt;" style="ellipse;whiteSpace=wrap;html=1;fillColor=#fad9d5;strokeColor=#ae4132;" parent="134" vertex="1">
                    <mxGeometry x="225" y="308" width="120" height="50" as="geometry"/>
                </mxCell>
                <mxCell id="47" value="&lt;font color=&quot;#000000&quot;&gt;Access project details&lt;/font&gt;" style="ellipse;whiteSpace=wrap;html=1;fillColor=#fad9d5;strokeColor=#ae4132;" parent="134" vertex="1">
                    <mxGeometry x="225" y="363" width="120" height="50" as="geometry"/>
                </mxCell>
                <mxCell id="48" value="&lt;font color=&quot;#000000&quot;&gt;Monitor project progress&lt;/font&gt;" style="ellipse;whiteSpace=wrap;html=1;fillColor=#fad9d5;strokeColor=#ae4132;" parent="134" vertex="1">
                    <mxGeometry x="225" y="417" width="120" height="50" as="geometry"/>
                </mxCell>
                <mxCell id="49" value="&lt;font color=&quot;#000000&quot;&gt;Approve/Reject project changes&lt;/font&gt;" style="ellipse;whiteSpace=wrap;html=1;fillColor=#fad9d5;strokeColor=#ae4132;" parent="134" vertex="1">
                    <mxGeometry x="225" y="472" width="120" height="50" as="geometry"/>
                </mxCell>
                <mxCell id="50" value="&lt;font color=&quot;#000000&quot;&gt;Generate Reports&lt;/font&gt;" style="ellipse;whiteSpace=wrap;html=1;fillColor=#fad9d5;strokeColor=#ae4132;" parent="134" vertex="1">
                    <mxGeometry x="225" y="528" width="120" height="50" as="geometry"/>
                </mxCell>
                <mxCell id="51" value="&lt;font color=&quot;#000000&quot;&gt;Export reports&lt;/font&gt;" style="ellipse;whiteSpace=wrap;html=1;fillColor=#fad9d5;strokeColor=#ae4132;" parent="134" vertex="1">
                    <mxGeometry x="225" y="583" width="120" height="50" as="geometry"/>
                </mxCell>
                <mxCell id="52" value="&lt;font color=&quot;#000000&quot;&gt;Allocate tasks to team memebers&lt;/font&gt;" style="ellipse;whiteSpace=wrap;html=1;fillColor=#b1ddf0;strokeColor=#10739e;" parent="134" vertex="1">
                    <mxGeometry x="220" y="903" width="120" height="50" as="geometry"/>
                </mxCell>
                <mxCell id="53" value="&lt;font color=&quot;#000000&quot;&gt;Modify task assignments&lt;/font&gt;" style="ellipse;whiteSpace=wrap;html=1;fillColor=#b1ddf0;strokeColor=#10739e;" parent="134" vertex="1">
                    <mxGeometry x="220" y="958" width="120" height="50" as="geometry"/>
                </mxCell>
                <mxCell id="54" value="&lt;font color=&quot;#000000&quot;&gt;View task prograss&lt;/font&gt;" style="ellipse;whiteSpace=wrap;html=1;fillColor=#b1ddf0;strokeColor=#10739e;" parent="134" vertex="1">
                    <mxGeometry x="495" y="1005" width="120" height="50" as="geometry"/>
                </mxCell>
                <mxCell id="55" value="&lt;font color=&quot;#000000&quot;&gt;Update task details&lt;/font&gt;" style="ellipse;whiteSpace=wrap;html=1;fillColor=#b1ddf0;strokeColor=#10739e;" parent="134" vertex="1">
                    <mxGeometry x="220" y="1068" width="120" height="50" as="geometry"/>
                </mxCell>
                <mxCell id="56" value="&lt;font color=&quot;#000000&quot;&gt;Approve completed tasks&lt;/font&gt;" style="ellipse;whiteSpace=wrap;html=1;fillColor=#b1ddf0;strokeColor=#10739e;" parent="134" vertex="1">
                    <mxGeometry x="515" y="1134" width="120" height="50" as="geometry"/>
                </mxCell>
                <mxCell id="57" value="&lt;font color=&quot;#000000&quot;&gt;Start New Discussion Thread&lt;/font&gt;" style="ellipse;whiteSpace=wrap;html=1;fillColor=#b1ddf0;strokeColor=#10739e;" parent="134" vertex="1">
                    <mxGeometry x="220" y="1179" width="120" height="50" as="geometry"/>
                </mxCell>
                <mxCell id="58" value="&lt;font color=&quot;#000000&quot;&gt;Add new user&lt;/font&gt;" style="ellipse;whiteSpace=wrap;html=1;fillColor=#fad9d5;strokeColor=#ae4132;" parent="134" vertex="1">
                    <mxGeometry x="500" y="88" width="120" height="50" as="geometry"/>
                </mxCell>
                <mxCell id="59" value="&lt;font color=&quot;#000000&quot;&gt;Generate productivity reports&lt;/font&gt;" style="ellipse;whiteSpace=wrap;html=1;fillColor=#fad9d5;strokeColor=#ae4132;" parent="134" vertex="1">
                    <mxGeometry x="450" y="524" width="120" height="50" as="geometry"/>
                </mxCell>
                <mxCell id="60" value="&lt;font color=&quot;#000000&quot;&gt;Generate resourse utilization report&lt;/font&gt;" style="ellipse;whiteSpace=wrap;html=1;fillColor=#fad9d5;strokeColor=#ae4132;" parent="134" vertex="1">
                    <mxGeometry x="450" y="584" width="120" height="50" as="geometry"/>
                </mxCell>
                <mxCell id="61" value="&lt;font color=&quot;#000000&quot;&gt;Reply to Discussion Posts&lt;/font&gt;" style="ellipse;whiteSpace=wrap;html=1;fillColor=#b1ddf0;strokeColor=#10739e;" parent="134" vertex="1">
                    <mxGeometry x="220" y="1234" width="120" height="50" as="geometry"/>
                </mxCell>
                <mxCell id="62" value="&lt;font color=&quot;#000000&quot;&gt;View team productivity&lt;/font&gt;" style="ellipse;whiteSpace=wrap;html=1;fillColor=#b1ddf0;strokeColor=#10739e;" parent="134" vertex="1">
                    <mxGeometry x="220" y="1290" width="120" height="50" as="geometry"/>
                </mxCell>
                <mxCell id="63" value="&lt;font color=&quot;#000000&quot;&gt;Track project progress&lt;/font&gt;" style="ellipse;whiteSpace=wrap;html=1;fillColor=#b1ddf0;strokeColor=#10739e;" parent="134" vertex="1">
                    <mxGeometry x="220" y="1124" width="120" height="50" as="geometry"/>
                </mxCell>
                <mxCell id="64" value="&lt;font style=&quot;font-size: 12px;&quot;&gt;&amp;lt;&amp;lt;include&amp;gt;&amp;gt;&lt;/font&gt;" style="html=1;verticalAlign=bottom;labelBackgroundColor=none;endArrow=open;endFill=0;dashed=1;fontSize=24;fontColor=#000000;entryX=0.045;entryY=0.707;entryDx=0;entryDy=0;strokeColor=#000000;entryPerimeter=0;exitX=1;exitY=0.5;exitDx=0;exitDy=0;" parent="134" target="56" edge="1" source="63">
                    <mxGeometry x="0.0021" width="160" relative="1" as="geometry">
                        <mxPoint x="350" y="1134" as="sourcePoint"/>
                        <mxPoint x="514.9999999999952" y="1203.0000000000005" as="targetPoint"/>
                        <mxPoint as="offset"/>
                    </mxGeometry>
                </mxCell>
                <mxCell id="65" value="&lt;font style=&quot;font-size: 12px;&quot;&gt;&amp;lt;&amp;lt;include&amp;gt;&amp;gt;&lt;/font&gt;" style="html=1;verticalAlign=bottom;labelBackgroundColor=none;endArrow=open;endFill=0;dashed=1;fontSize=24;fontColor=#000000;exitX=1;exitY=0.5;exitDx=0;exitDy=0;entryX=0;entryY=0.5;entryDx=0;entryDy=0;strokeColor=#000000;" parent="134" source="2" target="36" edge="1">
                    <mxGeometry width="160" relative="1" as="geometry">
                        <mxPoint x="570.0000000000052" y="429" as="sourcePoint"/>
                        <mxPoint x="539.9999999999952" y="329" as="targetPoint"/>
                    </mxGeometry>
                </mxCell>
                <mxCell id="66" value="&lt;font style=&quot;font-size: 12px;&quot;&gt;&amp;lt;&amp;lt;include&amp;gt;&amp;gt;&lt;/font&gt;" style="html=1;verticalAlign=bottom;labelBackgroundColor=none;endArrow=open;endFill=0;dashed=1;fontSize=24;fontColor=#000000;exitX=1;exitY=0.5;exitDx=0;exitDy=0;entryX=0;entryY=0.5;entryDx=0;entryDy=0;strokeColor=#000000;" parent="134" source="2" target="58" edge="1">
                    <mxGeometry width="160" relative="1" as="geometry">
                        <mxPoint x="360" y="159" as="sourcePoint"/>
                        <mxPoint x="449.9999999999952" y="239" as="targetPoint"/>
                    </mxGeometry>
                </mxCell>
                <mxCell id="67" value="&lt;font style=&quot;font-size: 12px;&quot;&gt;&amp;lt;&amp;lt;include&amp;gt;&amp;gt;&lt;/font&gt;" style="html=1;verticalAlign=bottom;labelBackgroundColor=none;endArrow=open;endFill=0;dashed=1;fontSize=24;fontColor=#000000;exitX=1;exitY=0.5;exitDx=0;exitDy=0;entryX=0;entryY=0.5;entryDx=0;entryDy=0;strokeColor=#000000;" parent="134" source="2" target="37" edge="1">
                    <mxGeometry width="160" relative="1" as="geometry">
                        <mxPoint x="360" y="159" as="sourcePoint"/>
                        <mxPoint x="469.9999999999952" y="209" as="targetPoint"/>
                    </mxGeometry>
                </mxCell>
                <mxCell id="68" value="&lt;font style=&quot;font-size: 12px;&quot;&gt;&amp;lt;&amp;lt;include&amp;gt;&amp;gt;&lt;/font&gt;" style="html=1;verticalAlign=bottom;labelBackgroundColor=none;endArrow=open;endFill=0;dashed=1;fontSize=24;fontColor=#000000;exitX=1;exitY=0.5;exitDx=0;exitDy=0;entryX=0;entryY=0.5;entryDx=0;entryDy=0;strokeColor=#000000;" parent="134" source="2" target="38" edge="1">
                    <mxGeometry width="160" relative="1" as="geometry">
                        <mxPoint x="360" y="159" as="sourcePoint"/>
                        <mxPoint x="504.9999999999952" y="259" as="targetPoint"/>
                    </mxGeometry>
                </mxCell>
                <mxCell id="69" value="&lt;font style=&quot;font-size: 12px;&quot;&gt;&amp;lt;&amp;lt;include&amp;gt;&amp;gt;&lt;/font&gt;" style="html=1;verticalAlign=bottom;labelBackgroundColor=none;endArrow=open;endFill=0;dashed=1;fontSize=24;fontColor=#000000;exitX=1;exitY=0.5;exitDx=0;exitDy=0;entryX=0;entryY=0.5;entryDx=0;entryDy=0;strokeColor=#000000;" parent="134" source="50" target="59" edge="1">
                    <mxGeometry width="160" relative="1" as="geometry">
                        <mxPoint x="360" y="159" as="sourcePoint"/>
                        <mxPoint x="504.9999999999952" y="319" as="targetPoint"/>
                    </mxGeometry>
                </mxCell>
                <mxCell id="70" value="&lt;font style=&quot;font-size: 12px;&quot;&gt;&amp;lt;&amp;lt;include&amp;gt;&amp;gt;&lt;/font&gt;" style="html=1;verticalAlign=bottom;labelBackgroundColor=none;endArrow=open;endFill=0;dashed=1;fontSize=24;fontColor=#000000;entryX=0;entryY=0.5;entryDx=0;entryDy=0;strokeColor=#000000;exitX=1;exitY=0.5;exitDx=0;exitDy=0;" parent="134" source="50" target="60" edge="1">
                    <mxGeometry width="160" relative="1" as="geometry">
                        <mxPoint x="360" y="624" as="sourcePoint"/>
                        <mxPoint x="459.9999999999952" y="559.0000000000005" as="targetPoint"/>
                    </mxGeometry>
                </mxCell>
                <mxCell id="71" value="&lt;font color=&quot;#000000&quot;&gt;User authenticate&lt;/font&gt;" style="ellipse;whiteSpace=wrap;html=1;fillColor=#d0cee2;strokeColor=#56517e;" parent="134" vertex="1">
                    <mxGeometry x="220" y="1423" width="120" height="50" as="geometry"/>
                </mxCell>
                <mxCell id="72" value="&lt;font color=&quot;#000000&quot;&gt;Login&lt;/font&gt;" style="ellipse;whiteSpace=wrap;html=1;fillColor=#d0cee2;strokeColor=#56517e;" parent="134" vertex="1">
                    <mxGeometry x="425" y="1304" width="120" height="50" as="geometry"/>
                </mxCell>
                <mxCell id="73" value="&lt;font color=&quot;#000000&quot;&gt;Logout&lt;/font&gt;" style="ellipse;whiteSpace=wrap;html=1;fillColor=#d0cee2;strokeColor=#56517e;" parent="134" vertex="1">
                    <mxGeometry x="425" y="1369" width="120" height="50" as="geometry"/>
                </mxCell>
                <mxCell id="74" value="&lt;font color=&quot;#000000&quot;&gt;Recover password&lt;/font&gt;" style="ellipse;whiteSpace=wrap;html=1;fillColor=#d0cee2;strokeColor=#56517e;" parent="134" vertex="1">
                    <mxGeometry x="425" y="1434" width="120" height="50" as="geometry"/>
                </mxCell>
                <mxCell id="75" value="&lt;font color=&quot;#000000&quot;&gt;Check task details&lt;/font&gt;" style="ellipse;whiteSpace=wrap;html=1;fillColor=#d0cee2;strokeColor=#56517e;" parent="134" vertex="1">
                    <mxGeometry x="220" y="1478" width="120" height="50" as="geometry"/>
                </mxCell>
                <mxCell id="76" value="&lt;font color=&quot;#000000&quot;&gt;Filter tasks by status&lt;/font&gt;" style="ellipse;whiteSpace=wrap;html=1;fillColor=#d0cee2;strokeColor=#56517e;" parent="134" vertex="1">
                    <mxGeometry x="220" y="1533" width="120" height="50" as="geometry"/>
                </mxCell>
                <mxCell id="77" value="&lt;font color=&quot;#000000&quot;&gt;Get task assignment alerts&lt;/font&gt;" style="ellipse;whiteSpace=wrap;html=1;fillColor=#d0cee2;strokeColor=#56517e;" parent="134" vertex="1">
                    <mxGeometry x="230" y="1755" width="120" height="50" as="geometry"/>
                </mxCell>
                <mxCell id="78" value="&lt;font color=&quot;#000000&quot;&gt;Recieve deadline reminders&lt;/font&gt;" style="ellipse;whiteSpace=wrap;html=1;fillColor=#d0cee2;strokeColor=#56517e;" parent="134" vertex="1">
                    <mxGeometry x="230" y="1809" width="120" height="50" as="geometry"/>
                </mxCell>
                <mxCell id="79" value="&lt;font color=&quot;#000000&quot;&gt;View project overview&lt;span style=&quot;white-space: pre;&quot;&gt;&#9;&lt;/span&gt;&lt;/font&gt;" style="ellipse;whiteSpace=wrap;html=1;fillColor=#d0cee2;strokeColor=#56517e;" parent="134" vertex="1">
                    <mxGeometry x="230" y="1864" width="120" height="50" as="geometry"/>
                </mxCell>
                <mxCell id="80" value="&lt;font color=&quot;#000000&quot;&gt;Check notifications&lt;/font&gt;" style="ellipse;whiteSpace=wrap;html=1;fillColor=#d0cee2;strokeColor=#56517e;" parent="134" vertex="1">
                    <mxGeometry x="230" y="1918" width="120" height="50" as="geometry"/>
                </mxCell>
                <mxCell id="81" value="&lt;font style=&quot;font-size: 12px;&quot;&gt;&amp;lt;&amp;lt;include&amp;gt;&amp;gt;&lt;/font&gt;" style="html=1;verticalAlign=bottom;labelBackgroundColor=none;endArrow=open;endFill=0;dashed=1;fontSize=24;fontColor=#000000;exitX=1;exitY=0.5;exitDx=0;exitDy=0;entryX=0;entryY=0.5;entryDx=0;entryDy=0;strokeColor=#000000;" parent="134" source="24" target="82" edge="1">
                    <mxGeometry x="0.0021" width="160" relative="1" as="geometry">
                        <mxPoint x="345" y="730" as="sourcePoint"/>
                        <mxPoint x="560" y="638.33" as="targetPoint"/>
                        <mxPoint as="offset"/>
                    </mxGeometry>
                </mxCell>
                <mxCell id="82" value="&lt;font color=&quot;#000000&quot;&gt;Notify team&lt;br&gt;&amp;nbsp;members&lt;/font&gt;" style="ellipse;whiteSpace=wrap;html=1;fillColor=#bac8d3;strokeColor=#23445d;" parent="134" vertex="1">
                    <mxGeometry x="500" y="824" width="120" height="50" as="geometry"/>
                </mxCell>
                <mxCell id="85" value="&lt;font color=&quot;#000000&quot;&gt;post comments&lt;/font&gt;" style="ellipse;whiteSpace=wrap;html=1;fillColor=#d0cee2;strokeColor=#56517e;" parent="134" vertex="1">
                    <mxGeometry x="425" y="1718" width="120" height="50" as="geometry"/>
                </mxCell>
                <mxCell id="86" value="&lt;font style=&quot;font-size: 12px;&quot;&gt;&amp;lt;&amp;lt;include&amp;gt;&amp;gt;&lt;/font&gt;" style="html=1;verticalAlign=bottom;labelBackgroundColor=none;endArrow=open;endFill=0;dashed=1;fontSize=24;fontColor=#000000;exitX=1;exitY=0.5;exitDx=0;exitDy=0;entryX=0;entryY=0.5;entryDx=0;entryDy=0;strokeColor=#000000;" parent="134" source="42" target="85" edge="1">
                    <mxGeometry x="0.0038" width="160" relative="1" as="geometry">
                        <mxPoint x="360" y="1609" as="sourcePoint"/>
                        <mxPoint x="495" y="1639" as="targetPoint"/>
                        <mxPoint as="offset"/>
                    </mxGeometry>
                </mxCell>
                <mxCell id="87" value="&lt;font color=&quot;#000000&quot;&gt;Approve completed tasks&lt;/font&gt;" style="ellipse;whiteSpace=wrap;html=1;fillColor=#b1ddf0;strokeColor=#10739e;" parent="134" vertex="1">
                    <mxGeometry x="223" y="1012" width="120" height="50" as="geometry"/>
                </mxCell>
                <mxCell id="88" value="&lt;font style=&quot;font-size: 12px;&quot;&gt;&amp;lt;&amp;lt;exclude&amp;gt;&amp;gt;&lt;/font&gt;" style="html=1;verticalAlign=bottom;labelBackgroundColor=none;endArrow=open;endFill=0;dashed=1;strokeColor=#000000;fontSize=24;fontColor=#000000;exitX=0;exitY=0.5;exitDx=0;exitDy=0;entryX=1;entryY=0.5;entryDx=0;entryDy=0;" parent="134" source="54" edge="1" target="87">
                    <mxGeometry width="160" relative="1" as="geometry">
                        <mxPoint x="480" y="1044" as="sourcePoint"/>
                        <mxPoint x="350" y="1034" as="targetPoint"/>
                    </mxGeometry>
                </mxCell>
                <mxCell id="89" value="&lt;font color=&quot;#000000&quot;&gt;Check notifications&lt;/font&gt;" style="ellipse;whiteSpace=wrap;html=1;fillColor=#bac8d3;strokeColor=#23445d;" parent="134" vertex="1">
                    <mxGeometry x="495" y="1854" width="120" height="50" as="geometry"/>
                </mxCell>
                <mxCell id="90" value="&lt;font style=&quot;font-size: 12px;&quot;&gt;&amp;lt;&amp;lt;exclude&amp;gt;&amp;gt;&lt;/font&gt;" style="html=1;verticalAlign=bottom;labelBackgroundColor=none;endArrow=open;endFill=0;dashed=1;strokeColor=#000000;fontSize=24;fontColor=#000000;entryX=1;entryY=0.5;entryDx=0;entryDy=0;exitX=0;exitY=0.5;exitDx=0;exitDy=0;" parent="134" source="89" target="78" edge="1">
                    <mxGeometry x="-0.0015" width="160" relative="1" as="geometry">
                        <mxPoint x="495" y="1709" as="sourcePoint"/>
                        <mxPoint x="360" y="1609" as="targetPoint"/>
                        <mxPoint as="offset"/>
                    </mxGeometry>
                </mxCell>
                <mxCell id="91" value="&lt;font style=&quot;font-size: 12px;&quot;&gt;&amp;lt;&amp;lt;exclude&amp;gt;&amp;gt;&lt;/font&gt;" style="html=1;verticalAlign=bottom;labelBackgroundColor=none;endArrow=open;endFill=0;dashed=1;strokeColor=#000000;fontSize=24;fontColor=#000000;entryX=1;entryY=0.5;entryDx=0;entryDy=0;exitX=0;exitY=0.5;exitDx=0;exitDy=0;" parent="134" source="28" target="43" edge="1">
                    <mxGeometry x="-0.0015" width="160" relative="1" as="geometry">
                        <mxPoint x="505" y="1889" as="sourcePoint"/>
                        <mxPoint x="360" y="1847.5" as="targetPoint"/>
                        <mxPoint as="offset"/>
                    </mxGeometry>
                </mxCell>
                <mxCell id="93" style="edgeStyle=none;html=1;exitX=1;exitY=0.3333333333333333;exitDx=0;exitDy=0;exitPerimeter=0;entryX=0;entryY=0.5;entryDx=0;entryDy=0;endArrow=none;endFill=0;strokeColor=#000000;" parent="134" source="4" target="17" edge="1">
                    <mxGeometry relative="1" as="geometry">
                        <mxPoint x="40" y="394" as="sourcePoint"/>
                        <mxPoint x="240" y="159" as="targetPoint"/>
                    </mxGeometry>
                </mxCell>
                <mxCell id="94" style="edgeStyle=none;html=1;entryX=0;entryY=0.5;entryDx=0;entryDy=0;endArrow=none;endFill=0;strokeColor=#000000;" parent="134" target="39" edge="1">
                    <mxGeometry relative="1" as="geometry">
                        <mxPoint x="30" y="384" as="sourcePoint"/>
                        <mxPoint x="235" y="229" as="targetPoint"/>
                    </mxGeometry>
                </mxCell>
                <mxCell id="95" style="edgeStyle=none;html=1;entryX=0;entryY=0.5;entryDx=0;entryDy=0;endArrow=none;endFill=0;strokeColor=#000000;exitX=1;exitY=0.3333333333333333;exitDx=0;exitDy=0;exitPerimeter=0;" parent="134" source="4" target="40" edge="1">
                    <mxGeometry relative="1" as="geometry">
                        <mxPoint x="40" y="394" as="sourcePoint"/>
                        <mxPoint x="235.00000000000114" y="279" as="targetPoint"/>
                    </mxGeometry>
                </mxCell>
                <mxCell id="96" style="edgeStyle=none;html=1;entryX=0;entryY=0.5;entryDx=0;entryDy=0;endArrow=none;endFill=0;strokeColor=#000000;" parent="134" target="46" edge="1">
                    <mxGeometry relative="1" as="geometry">
                        <mxPoint x="30" y="384" as="sourcePoint"/>
                        <mxPoint x="230.00000000000114" y="329" as="targetPoint"/>
                    </mxGeometry>
                </mxCell>
                <mxCell id="97" style="edgeStyle=none;html=1;entryX=0;entryY=0.5;entryDx=0;entryDy=0;endArrow=none;endFill=0;strokeColor=#000000;" parent="134" target="47" edge="1">
                    <mxGeometry relative="1" as="geometry">
                        <mxPoint x="30" y="384" as="sourcePoint"/>
                        <mxPoint x="230.00000000000114" y="379" as="targetPoint"/>
                    </mxGeometry>
                </mxCell>
                <mxCell id="98" style="edgeStyle=none;html=1;entryX=0;entryY=0.5;entryDx=0;entryDy=0;endArrow=none;endFill=0;strokeColor=#000000;" parent="134" target="48" edge="1">
                    <mxGeometry relative="1" as="geometry">
                        <mxPoint x="30" y="384" as="sourcePoint"/>
                        <mxPoint x="230.00000000000114" y="428.9999999999998" as="targetPoint"/>
                    </mxGeometry>
                </mxCell>
                <mxCell id="99" style="edgeStyle=none;html=1;entryX=0;entryY=0.5;entryDx=0;entryDy=0;endArrow=none;endFill=0;strokeColor=#000000;" parent="134" target="49" edge="1">
                    <mxGeometry relative="1" as="geometry">
                        <mxPoint x="30" y="384" as="sourcePoint"/>
                        <mxPoint x="230" y="479" as="targetPoint"/>
                    </mxGeometry>
                </mxCell>
                <mxCell id="100" style="edgeStyle=none;html=1;entryX=0;entryY=0.5;entryDx=0;entryDy=0;endArrow=none;endFill=0;strokeColor=#000000;" parent="134" target="50" edge="1">
                    <mxGeometry relative="1" as="geometry">
                        <mxPoint x="30" y="384" as="sourcePoint"/>
                        <mxPoint x="230" y="529" as="targetPoint"/>
                    </mxGeometry>
                </mxCell>
                <mxCell id="101" style="edgeStyle=none;html=1;entryX=0;entryY=0.5;entryDx=0;entryDy=0;endArrow=none;endFill=0;strokeColor=#000000;" parent="134" target="51" edge="1">
                    <mxGeometry relative="1" as="geometry">
                        <mxPoint x="30" y="384" as="sourcePoint"/>
                        <mxPoint x="235" y="589" as="targetPoint"/>
                    </mxGeometry>
                </mxCell>
                <mxCell id="127" style="edgeStyle=none;html=1;exitX=0;exitY=0.3333333333333333;exitDx=0;exitDy=0;exitPerimeter=0;strokeColor=#000000;entryX=1;entryY=0.5;entryDx=0;entryDy=0;" parent="134" source="10" target="31" edge="1">
                    <mxGeometry relative="1" as="geometry">
                        <mxPoint x="760" y="1403.9999999999995" as="targetPoint"/>
                    </mxGeometry>
                </mxCell>
                <mxCell id="103" style="edgeStyle=none;html=1;exitX=1;exitY=0.3333333333333333;exitDx=0;exitDy=0;exitPerimeter=0;entryX=0;entryY=0.5;entryDx=0;entryDy=0;strokeColor=#000000;endArrow=none;endFill=0;" parent="134" source="8" target="23" edge="1">
                    <mxGeometry relative="1" as="geometry">
                        <mxPoint x="40" y="844" as="sourcePoint"/>
                        <mxPoint x="235" y="744" as="targetPoint"/>
                    </mxGeometry>
                </mxCell>
                <mxCell id="104" style="edgeStyle=none;html=1;entryX=0;entryY=0.5;entryDx=0;entryDy=0;strokeColor=#000000;endArrow=none;endFill=0;exitX=1;exitY=0.3333333333333333;exitDx=0;exitDy=0;exitPerimeter=0;" parent="134" source="8" target="24" edge="1">
                    <mxGeometry relative="1" as="geometry">
                        <mxPoint x="30" y="834" as="sourcePoint"/>
                        <mxPoint x="235.00000000000102" y="792" as="targetPoint"/>
                    </mxGeometry>
                </mxCell>
                <mxCell id="105" style="edgeStyle=none;html=1;entryX=0;entryY=0.5;entryDx=0;entryDy=0;strokeColor=#000000;endArrow=none;endFill=0;exitX=1;exitY=0.3333333333333333;exitDx=0;exitDy=0;exitPerimeter=0;" parent="134" source="8" target="21" edge="1">
                    <mxGeometry relative="1" as="geometry">
                        <mxPoint x="30" y="834" as="sourcePoint"/>
                        <mxPoint x="240.00000000000057" y="840" as="targetPoint"/>
                    </mxGeometry>
                </mxCell>
                <mxCell id="106" style="edgeStyle=none;html=1;entryX=0;entryY=0.5;entryDx=0;entryDy=0;strokeColor=#000000;endArrow=none;endFill=0;exitX=1;exitY=0.3333333333333333;exitDx=0;exitDy=0;exitPerimeter=0;" parent="134" source="8" target="52" edge="1">
                    <mxGeometry relative="1" as="geometry">
                        <mxPoint x="30" y="834" as="sourcePoint"/>
                        <mxPoint x="235.00000000000057" y="890" as="targetPoint"/>
                    </mxGeometry>
                </mxCell>
                <mxCell id="107" style="edgeStyle=none;html=1;entryX=0;entryY=0.5;entryDx=0;entryDy=0;strokeColor=#000000;endArrow=none;endFill=0;exitX=1;exitY=0.3333333333333333;exitDx=0;exitDy=0;exitPerimeter=0;" parent="134" source="8" target="53" edge="1">
                    <mxGeometry relative="1" as="geometry">
                        <mxPoint x="30" y="834" as="sourcePoint"/>
                        <mxPoint x="235.00000000000057" y="940" as="targetPoint"/>
                    </mxGeometry>
                </mxCell>
                <mxCell id="108" style="edgeStyle=none;html=1;entryX=0;entryY=0.5;entryDx=0;entryDy=0;strokeColor=#000000;endArrow=none;endFill=0;exitX=1;exitY=0.3333333333333333;exitDx=0;exitDy=0;exitPerimeter=0;" parent="134" source="8" target="87" edge="1">
                    <mxGeometry relative="1" as="geometry">
                        <mxPoint x="20" y="904" as="sourcePoint"/>
                        <mxPoint x="235.00000000000057" y="990" as="targetPoint"/>
                    </mxGeometry>
                </mxCell>
                <mxCell id="109" style="edgeStyle=none;html=1;entryX=0;entryY=0.5;entryDx=0;entryDy=0;strokeColor=#000000;endArrow=none;endFill=0;exitX=1;exitY=0.3333333333333333;exitDx=0;exitDy=0;exitPerimeter=0;" parent="134" source="8" target="55" edge="1">
                    <mxGeometry relative="1" as="geometry">
                        <mxPoint x="30" y="834" as="sourcePoint"/>
                        <mxPoint x="240" y="1040" as="targetPoint"/>
                    </mxGeometry>
                </mxCell>
                <mxCell id="110" style="edgeStyle=none;html=1;entryX=0;entryY=0.5;entryDx=0;entryDy=0;strokeColor=#000000;endArrow=none;endFill=0;exitX=1;exitY=0.3333333333333333;exitDx=0;exitDy=0;exitPerimeter=0;" parent="134" source="8" target="63" edge="1">
                    <mxGeometry relative="1" as="geometry">
                        <mxPoint x="30" y="834" as="sourcePoint"/>
                        <mxPoint x="235.00000000000182" y="1090" as="targetPoint"/>
                    </mxGeometry>
                </mxCell>
                <mxCell id="111" style="edgeStyle=none;html=1;entryX=0;entryY=0.5;entryDx=0;entryDy=0;strokeColor=#000000;endArrow=none;endFill=0;exitX=1;exitY=0.3333333333333333;exitDx=0;exitDy=0;exitPerimeter=0;" parent="134" source="8" target="57" edge="1">
                    <mxGeometry relative="1" as="geometry">
                        <mxPoint x="30" y="834" as="sourcePoint"/>
                        <mxPoint x="240" y="1140" as="targetPoint"/>
                    </mxGeometry>
                </mxCell>
                <mxCell id="112" style="edgeStyle=none;html=1;entryX=0;entryY=0.5;entryDx=0;entryDy=0;strokeColor=#000000;endArrow=none;endFill=0;exitX=1;exitY=0.3333333333333333;exitDx=0;exitDy=0;exitPerimeter=0;" parent="134" source="8" target="61" edge="1">
                    <mxGeometry relative="1" as="geometry">
                        <mxPoint x="40" y="844" as="sourcePoint"/>
                        <mxPoint x="235" y="1190" as="targetPoint"/>
                    </mxGeometry>
                </mxCell>
                <mxCell id="113" style="edgeStyle=none;html=1;entryX=0;entryY=0.5;entryDx=0;entryDy=0;strokeColor=#000000;endArrow=none;endFill=0;exitX=1;exitY=0.3333333333333333;exitDx=0;exitDy=0;exitPerimeter=0;" parent="134" source="8" target="62" edge="1">
                    <mxGeometry relative="1" as="geometry">
                        <mxPoint x="30" y="914" as="sourcePoint"/>
                        <mxPoint x="235" y="1238" as="targetPoint"/>
                    </mxGeometry>
                </mxCell>
                <mxCell id="115" style="edgeStyle=none;html=1;exitX=1;exitY=0.3333333333333333;exitDx=0;exitDy=0;exitPerimeter=0;entryX=0;entryY=0.5;entryDx=0;entryDy=0;strokeColor=#000000;endArrow=none;endFill=0;" parent="134" source="9" target="75" edge="1">
                    <mxGeometry relative="1" as="geometry">
                        <mxPoint x="40" y="1394" as="sourcePoint"/>
                        <mxPoint x="230" y="1404" as="targetPoint"/>
                    </mxGeometry>
                </mxCell>
                <mxCell id="116" style="edgeStyle=none;html=1;exitX=1;exitY=0.3333333333333333;exitDx=0;exitDy=0;exitPerimeter=0;entryX=0;entryY=0.5;entryDx=0;entryDy=0;strokeColor=#000000;endArrow=none;endFill=0;" parent="134" source="9" target="76" edge="1">
                    <mxGeometry relative="1" as="geometry">
                        <mxPoint x="40" y="1394" as="sourcePoint"/>
                        <mxPoint x="230" y="1454" as="targetPoint"/>
                    </mxGeometry>
                </mxCell>
                <mxCell id="114" style="edgeStyle=none;html=1;exitX=1;exitY=0.3333333333333333;exitDx=0;exitDy=0;exitPerimeter=0;entryX=0;entryY=0.5;entryDx=0;entryDy=0;strokeColor=#000000;endArrow=none;endFill=0;" parent="134" source="9" target="71" edge="1">
                    <mxGeometry relative="1" as="geometry"/>
                </mxCell>
                <mxCell id="117" style="edgeStyle=none;html=1;exitX=1;exitY=0.3333333333333333;exitDx=0;exitDy=0;exitPerimeter=0;entryX=0;entryY=0.5;entryDx=0;entryDy=0;strokeColor=#000000;endArrow=none;endFill=0;" parent="134" source="9" target="13" edge="1">
                    <mxGeometry relative="1" as="geometry">
                        <mxPoint x="40" y="1394" as="sourcePoint"/>
                        <mxPoint x="230" y="1504" as="targetPoint"/>
                    </mxGeometry>
                </mxCell>
                <mxCell id="118" style="edgeStyle=none;html=1;exitX=1;exitY=0.3333333333333333;exitDx=0;exitDy=0;exitPerimeter=0;strokeColor=#000000;endArrow=none;endFill=0;entryX=0;entryY=0.5;entryDx=0;entryDy=0;" parent="134" source="9" target="43" edge="1">
                    <mxGeometry relative="1" as="geometry">
                        <mxPoint x="50" y="1404" as="sourcePoint"/>
                        <mxPoint x="220" y="1624" as="targetPoint"/>
                    </mxGeometry>
                </mxCell>
                <mxCell id="119" style="edgeStyle=none;html=1;exitX=1;exitY=0.3333333333333333;exitDx=0;exitDy=0;exitPerimeter=0;strokeColor=#000000;endArrow=none;endFill=0;entryX=0;entryY=0.5;entryDx=0;entryDy=0;" parent="134" source="9" target="42" edge="1">
                    <mxGeometry relative="1" as="geometry">
                        <mxPoint x="40" y="1394" as="sourcePoint"/>
                        <mxPoint x="230" y="1629" as="targetPoint"/>
                    </mxGeometry>
                </mxCell>
                <mxCell id="120" style="edgeStyle=none;html=1;exitX=1;exitY=0.3333333333333333;exitDx=0;exitDy=0;exitPerimeter=0;strokeColor=#000000;endArrow=none;endFill=0;entryX=0;entryY=0.5;entryDx=0;entryDy=0;" parent="134" source="9" target="77" edge="1">
                    <mxGeometry relative="1" as="geometry">
                        <mxPoint x="40" y="1394" as="sourcePoint"/>
                        <mxPoint x="240" y="1729" as="targetPoint"/>
                    </mxGeometry>
                </mxCell>
                <mxCell id="121" style="edgeStyle=none;html=1;exitX=1;exitY=0.3333333333333333;exitDx=0;exitDy=0;exitPerimeter=0;strokeColor=#000000;endArrow=none;endFill=0;entryX=0;entryY=0.5;entryDx=0;entryDy=0;" parent="134" source="9" target="78" edge="1">
                    <mxGeometry relative="1" as="geometry">
                        <mxPoint x="40" y="1394" as="sourcePoint"/>
                        <mxPoint x="240" y="1789" as="targetPoint"/>
                    </mxGeometry>
                </mxCell>
                <mxCell id="123" style="edgeStyle=none;html=1;exitX=1;exitY=0.3333333333333333;exitDx=0;exitDy=0;exitPerimeter=0;strokeColor=#000000;endArrow=none;endFill=0;entryX=0;entryY=0.5;entryDx=0;entryDy=0;" parent="134" source="9" target="79" edge="1">
                    <mxGeometry relative="1" as="geometry">
                        <mxPoint x="40" y="1393.9999999999995" as="sourcePoint"/>
                        <mxPoint x="235.00000000000432" y="1808.9999999999995" as="targetPoint"/>
                    </mxGeometry>
                </mxCell>
                <mxCell id="124" style="edgeStyle=none;html=1;exitX=1;exitY=0.3333333333333333;exitDx=0;exitDy=0;exitPerimeter=0;strokeColor=#000000;endArrow=none;endFill=0;entryX=0;entryY=0.5;entryDx=0;entryDy=0;" parent="134" source="9" target="80" edge="1">
                    <mxGeometry relative="1" as="geometry">
                        <mxPoint x="40" y="1394" as="sourcePoint"/>
                        <mxPoint x="235" y="1879" as="targetPoint"/>
                    </mxGeometry>
                </mxCell>
                <mxCell id="130" value="&lt;font style=&quot;font-size: 12px;&quot;&gt;&amp;lt;&amp;lt;include&amp;gt;&amp;gt;&lt;/font&gt;" style="html=1;verticalAlign=bottom;labelBackgroundColor=none;endArrow=open;endFill=0;dashed=1;fontSize=24;fontColor=#000000;exitX=1;exitY=0.5;exitDx=0;exitDy=0;strokeColor=#000000;entryX=0;entryY=0.5;entryDx=0;entryDy=0;" parent="134" source="71" target="72" edge="1">
                    <mxGeometry width="160" relative="1" as="geometry">
                        <mxPoint x="345" y="1394.0000000000005" as="sourcePoint"/>
                        <mxPoint x="420" y="1374" as="targetPoint"/>
                    </mxGeometry>
                </mxCell>
                <mxCell id="125" style="edgeStyle=none;html=1;exitX=0;exitY=0.3333333333333333;exitDx=0;exitDy=0;exitPerimeter=0;entryX=1;entryY=0.5;entryDx=0;entryDy=0;strokeColor=#000000;" parent="134" source="10" target="82" edge="1">
                    <mxGeometry relative="1" as="geometry"/>
                </mxCell>
                <mxCell id="131" value="&lt;font style=&quot;font-size: 12px;&quot;&gt;&amp;lt;&amp;lt;include&amp;gt;&amp;gt;&lt;/font&gt;" style="html=1;verticalAlign=bottom;labelBackgroundColor=none;endArrow=open;endFill=0;dashed=1;fontSize=24;fontColor=#000000;exitX=1;exitY=0.5;exitDx=0;exitDy=0;strokeColor=#000000;entryX=0;entryY=0.5;entryDx=0;entryDy=0;" parent="134" source="71" target="73" edge="1">
                    <mxGeometry width="160" relative="1" as="geometry">
                        <mxPoint x="350" y="1404" as="sourcePoint"/>
                        <mxPoint x="434.9999999999952" y="1379" as="targetPoint"/>
                    </mxGeometry>
                </mxCell>
                <mxCell id="128" style="edgeStyle=none;html=1;exitX=0;exitY=0.3333333333333333;exitDx=0;exitDy=0;exitPerimeter=0;entryX=1;entryY=0.5;entryDx=0;entryDy=0;strokeColor=#000000;" parent="134" source="10" target="89" edge="1">
                    <mxGeometry relative="1" as="geometry"/>
                </mxCell>
                <mxCell id="132" value="&lt;font style=&quot;font-size: 12px;&quot;&gt;&amp;lt;&amp;lt;include&amp;gt;&amp;gt;&lt;/font&gt;" style="html=1;verticalAlign=bottom;labelBackgroundColor=none;endArrow=open;endFill=0;dashed=1;fontSize=24;fontColor=#000000;exitX=1;exitY=0.5;exitDx=0;exitDy=0;strokeColor=#000000;entryX=0;entryY=0.5;entryDx=0;entryDy=0;" parent="134" source="71" target="74" edge="1">
                    <mxGeometry width="160" relative="1" as="geometry">
                        <mxPoint x="350" y="1404" as="sourcePoint"/>
                        <mxPoint x="434.9999999999952" y="1429" as="targetPoint"/>
                    </mxGeometry>
                </mxCell>
            </root>
        </mxGraphModel>
    </diagram>
</mxfile>